<svg xmlns="http://www.w3.org/2000/svg" viewBox="0 0 640 420" role="img" aria-labelledby="title desc">
  <title id="title">IPC Shalom Dallas logo</title>
  <desc id="desc">Monochrome logo with dove and text IPC SHALOM DALLAS.</desc>
  <rect width="640" height="420" fill="#fff"/>
  <g fill="none" stroke="#111" stroke-width="2">
    <path d="M110 120 Q80 155 70 190"/>
    <path d="M530 120 Q560 155 570 190"/>
    <line x1="40" y1="190" x2="600" y2="190"/>
    <line x1="40" y1="290" x2="600" y2="290"/>
  </g>
  <g fill="#111" font-family="Georgia, serif" text-anchor="middle">
    <text x="320" y="64" font-size="28" letter-spacing="10">SINCE 2011</text>
    <text x="320" y="245" font-size="56" letter-spacing="2">IPC SHALOM</text>
    <text x="320" y="355" font-size="16">✦ ✦ ✦</text>
    <text x="320" y="390" font-size="40" letter-spacing="10">DALLAS</text>
  </g>
  <g transform="translate(290 95) scale(1.2)">
    <path d="M27 41c14-22 10-36 28-44-4 8-4 18-2 29 6-10 12-19 24-24-3 6-7 13-6 22 10 8 12 21 3 31-9 12-20 19-33 19-8 0-18-3-27-10-9-6-15-10-24-10 14-3 25-1 37 6z" fill="#fff" stroke="#111" stroke-width="1.5"/>
  </g>
</svg>
